<svg fill="rgb(16, 185, 129)" width="20px" height="20px" viewBox="0 0 192 222" xmlns="http://www.w3.org/2000/svg">
  <path d="M94.8175 188.194L29.7456 150.657C28.9559 150.183 28.4295 149.341 28.4295 148.393V90.3757C28.4295 89.3754 29.5351 88.7437 30.3774 89.2175L105.926 132.809C106.979 133.441 108.295 132.651 108.295 131.441V103.169C108.295 102.063 107.716 101.01 106.716 100.431L15.8468 47.9948C15.0571 47.5209 14.0041 47.5209 13.2144 47.9948L1.31618 54.8916C0.526471 55.3654 0 56.2077 0 57.1554V164.924C0 165.872 0.526471 166.714 1.31618 167.188L94.6596 221.099C95.4493 221.572 96.5022 221.572 97.2919 221.099L175.684 175.822C176.736 175.19 176.736 173.716 175.684 173.084L151.255 158.975C150.255 158.396 149.097 158.396 148.096 158.975L97.5025 188.194C96.7128 188.668 95.6599 188.668 94.8702 188.194H94.8175Z"></path>
  <path d="M190.631 54.8389L97.2876 0.980857C96.4979 0.507032 95.4449 0.507032 94.6552 0.980857L45.3249 29.463C44.2719 30.0947 44.2719 31.5689 45.3249 32.2006L69.5426 46.2048C70.5428 46.7839 71.7011 46.7839 72.7014 46.2048L94.8132 33.4641C95.6029 32.9903 96.6558 32.9903 97.4455 33.4641L162.517 71.0016C163.307 71.4754 163.834 72.3178 163.834 73.2654V131.546C163.834 132.651 164.413 133.704 165.413 134.283L189.631 148.235C190.684 148.867 192 148.077 192 146.866V57.1554C192 56.2077 191.473 55.3654 190.684 54.8915L190.631 54.8389Z"></path>
</svg>